<svg width="164" height="52" viewBox="0 0 164 52" fill="none" xmlns="http://www.w3.org/2000/svg">
<rect width="164" height="51" transform="translate(0 0.5)" fill="#1A1A1A"/>
<path d="M16.56 34.5V22.596H19.272L19.536 24.204C19.92 23.628 20.424 23.172 21.048 22.836C21.688 22.484 22.424 22.308 23.256 22.308C25.096 22.308 26.4 23.02 27.168 24.444C27.6 23.788 28.176 23.268 28.896 22.884C29.632 22.5 30.432 22.308 31.296 22.308C32.848 22.308 34.04 22.772 34.872 23.7C35.704 24.628 36.12 25.988 36.12 27.78V34.5H33.048V28.068C33.048 27.044 32.848 26.26 32.448 25.716C32.064 25.172 31.464 24.9 30.648 24.9C29.816 24.9 29.144 25.204 28.632 25.812C28.136 26.42 27.888 27.268 27.888 28.356V34.5H24.816V28.068C24.816 27.044 24.616 26.26 24.216 25.716C23.816 25.172 23.2 24.9 22.368 24.9C21.552 24.9 20.888 25.204 20.376 25.812C19.88 26.42 19.632 27.268 19.632 28.356V34.5H16.56ZM43.1406 34.788C42.1166 34.788 41.2766 34.628 40.6206 34.308C39.9646 33.972 39.4766 33.532 39.1566 32.988C38.8366 32.444 38.6766 31.844 38.6766 31.188C38.6766 30.084 39.1086 29.188 39.9726 28.5C40.8366 27.812 42.1326 27.468 43.8606 27.468H46.8846V27.18C46.8846 26.364 46.6526 25.764 46.1886 25.38C45.7246 24.996 45.1486 24.804 44.4606 24.804C43.8366 24.804 43.2926 24.956 42.8286 25.26C42.3646 25.548 42.0766 25.98 41.9646 26.556H38.9646C39.0446 25.692 39.3326 24.94 39.8286 24.3C40.3406 23.66 40.9966 23.172 41.7966 22.836C42.5966 22.484 43.4926 22.308 44.4846 22.308C46.1806 22.308 47.5166 22.732 48.4926 23.58C49.4686 24.428 49.9566 25.628 49.9566 27.18V34.5H47.3406L47.0526 32.58C46.7006 33.22 46.2046 33.748 45.5646 34.164C44.9406 34.58 44.1326 34.788 43.1406 34.788ZM43.8366 32.388C44.7166 32.388 45.3966 32.1 45.8766 31.524C46.3726 30.948 46.6846 30.236 46.8126 29.388H44.1966C43.3806 29.388 42.7966 29.54 42.4446 29.844C42.0926 30.132 41.9166 30.492 41.9166 30.924C41.9166 31.388 42.0926 31.748 42.4446 32.004C42.7966 32.26 43.2606 32.388 43.8366 32.388ZM57.8081 34.788C56.7521 34.788 55.8241 34.62 55.0241 34.284C54.2241 33.932 53.5841 33.452 53.1041 32.844C52.6241 32.236 52.3361 31.532 52.2401 30.732H55.3361C55.4321 31.196 55.6881 31.596 56.1041 31.932C56.5361 32.252 57.0881 32.412 57.7601 32.412C58.4321 32.412 58.9201 32.276 59.2241 32.004C59.5441 31.732 59.7041 31.42 59.7041 31.068C59.7041 30.556 59.4801 30.212 59.0321 30.036C58.5841 29.844 57.9601 29.66 57.1601 29.484C56.6481 29.372 56.1281 29.236 55.6001 29.076C55.0721 28.916 54.5841 28.716 54.1361 28.476C53.7041 28.22 53.3521 27.9 53.0801 27.516C52.8081 27.116 52.6721 26.628 52.6721 26.052C52.6721 24.996 53.0881 24.108 53.9201 23.388C54.7681 22.668 55.9521 22.308 57.4721 22.308C58.8801 22.308 60.0001 22.636 60.8321 23.292C61.6801 23.948 62.1841 24.852 62.3441 26.004H59.4401C59.2641 25.124 58.6001 24.684 57.4481 24.684C56.8721 24.684 56.4241 24.796 56.1041 25.02C55.8001 25.244 55.6481 25.524 55.6481 25.86C55.6481 26.212 55.8801 26.492 56.3441 26.7C56.8081 26.908 57.4241 27.1 58.1921 27.276C59.0241 27.468 59.7841 27.684 60.4721 27.924C61.1761 28.148 61.7361 28.492 62.1521 28.956C62.5681 29.404 62.7761 30.052 62.7761 30.9C62.7921 31.636 62.6001 32.3 62.2001 32.892C61.8001 33.484 61.2241 33.948 60.4721 34.284C59.7201 34.62 58.8321 34.788 57.8081 34.788ZM72.5535 34.788C71.6575 34.788 70.8735 34.62 70.2015 34.284C69.5295 33.948 68.9855 33.476 68.5695 32.868L68.2335 34.5H65.4975V17.22H68.5695V24.3C68.9535 23.772 69.4575 23.308 70.0815 22.908C70.7215 22.508 71.5455 22.308 72.5535 22.308C73.6735 22.308 74.6735 22.58 75.5535 23.124C76.4335 23.668 77.1295 24.412 77.6415 25.356C78.1535 26.3 78.4095 27.372 78.4095 28.572C78.4095 29.772 78.1535 30.844 77.6415 31.788C77.1295 32.716 76.4335 33.452 75.5535 33.996C74.6735 34.524 73.6735 34.788 72.5535 34.788ZM71.9055 32.1C72.8815 32.1 73.6895 31.772 74.3295 31.116C74.9695 30.46 75.2895 29.612 75.2895 28.572C75.2895 27.532 74.9695 26.676 74.3295 26.004C73.6895 25.332 72.8815 24.996 71.9055 24.996C70.9135 24.996 70.0975 25.332 69.4575 26.004C68.8335 26.66 68.5215 27.508 68.5215 28.548C68.5215 29.588 68.8335 30.444 69.4575 31.116C70.0975 31.772 70.9135 32.1 71.9055 32.1ZM86.8658 34.788C85.7138 34.788 84.6738 34.524 83.7458 33.996C82.8338 33.468 82.1058 32.74 81.5618 31.812C81.0338 30.868 80.7698 29.78 80.7698 28.548C80.7698 27.316 81.0418 26.236 81.5858 25.308C82.1298 24.364 82.8578 23.628 83.7698 23.1C84.6978 22.572 85.7378 22.308 86.8898 22.308C88.0258 22.308 89.0498 22.572 89.9618 23.1C90.8898 23.628 91.6178 24.364 92.1458 25.308C92.6898 26.236 92.9618 27.316 92.9618 28.548C92.9618 29.78 92.6898 30.868 92.1458 31.812C91.6178 32.74 90.8898 33.468 89.9618 33.996C89.0338 34.524 88.0018 34.788 86.8658 34.788ZM86.8658 32.124C87.6658 32.124 88.3618 31.828 88.9538 31.236C89.5458 30.628 89.8418 29.732 89.8418 28.548C89.8418 27.364 89.5458 26.476 88.9538 25.884C88.3618 25.276 87.6738 24.972 86.8898 24.972C86.0738 24.972 85.3698 25.276 84.7778 25.884C84.2018 26.476 83.9138 27.364 83.9138 28.548C83.9138 29.732 84.2018 30.628 84.7778 31.236C85.3698 31.828 86.0658 32.124 86.8658 32.124ZM100.628 34.788C99.5724 34.788 98.6444 34.62 97.8444 34.284C97.0444 33.932 96.4044 33.452 95.9244 32.844C95.4444 32.236 95.1564 31.532 95.0604 30.732H98.1564C98.2524 31.196 98.5084 31.596 98.9244 31.932C99.3564 32.252 99.9084 32.412 100.58 32.412C101.252 32.412 101.74 32.276 102.044 32.004C102.364 31.732 102.524 31.42 102.524 31.068C102.524 30.556 102.3 30.212 101.852 30.036C101.404 29.844 100.78 29.66 99.9804 29.484C99.4684 29.372 98.9484 29.236 98.4204 29.076C97.8924 28.916 97.4044 28.716 96.9564 28.476C96.5244 28.22 96.1724 27.9 95.9004 27.516C95.6284 27.116 95.4924 26.628 95.4924 26.052C95.4924 24.996 95.9084 24.108 96.7404 23.388C97.5884 22.668 98.7724 22.308 100.292 22.308C101.7 22.308 102.82 22.636 103.652 23.292C104.5 23.948 105.004 24.852 105.164 26.004H102.26C102.084 25.124 101.42 24.684 100.268 24.684C99.6924 24.684 99.2444 24.796 98.9244 25.02C98.6204 25.244 98.4684 25.524 98.4684 25.86C98.4684 26.212 98.7004 26.492 99.1644 26.7C99.6284 26.908 100.244 27.1 101.012 27.276C101.844 27.468 102.604 27.684 103.292 27.924C103.996 28.148 104.556 28.492 104.972 28.956C105.388 29.404 105.596 30.052 105.596 30.9C105.612 31.636 105.42 32.3 105.02 32.892C104.62 33.484 104.044 33.948 103.292 34.284C102.54 34.62 101.652 34.788 100.628 34.788ZM113.238 34.788C112.182 34.788 111.254 34.62 110.454 34.284C109.654 33.932 109.014 33.452 108.534 32.844C108.054 32.236 107.766 31.532 107.67 30.732H110.766C110.862 31.196 111.118 31.596 111.534 31.932C111.966 32.252 112.518 32.412 113.19 32.412C113.862 32.412 114.35 32.276 114.654 32.004C114.974 31.732 115.134 31.42 115.134 31.068C115.134 30.556 114.91 30.212 114.462 30.036C114.014 29.844 113.39 29.66 112.59 29.484C112.078 29.372 111.558 29.236 111.03 29.076C110.502 28.916 110.014 28.716 109.566 28.476C109.134 28.22 108.782 27.9 108.51 27.516C108.238 27.116 108.102 26.628 108.102 26.052C108.102 24.996 108.518 24.108 109.35 23.388C110.198 22.668 111.382 22.308 112.902 22.308C114.31 22.308 115.43 22.636 116.262 23.292C117.11 23.948 117.614 24.852 117.774 26.004H114.87C114.694 25.124 114.03 24.684 112.878 24.684C112.302 24.684 111.854 24.796 111.534 25.02C111.23 25.244 111.078 25.524 111.078 25.86C111.078 26.212 111.31 26.492 111.774 26.7C112.238 26.908 112.854 27.1 113.622 27.276C114.454 27.468 115.214 27.684 115.902 27.924C116.606 28.148 117.166 28.492 117.582 28.956C117.998 29.404 118.206 30.052 118.206 30.9C118.222 31.636 118.03 32.3 117.63 32.892C117.23 33.484 116.654 33.948 115.902 34.284C115.15 34.62 114.262 34.788 113.238 34.788ZM132.399 22.596V34.5H129.687L129.447 32.484C129.079 33.188 128.543 33.748 127.839 34.164C127.151 34.58 126.335 34.788 125.391 34.788C123.919 34.788 122.775 34.324 121.959 33.396C121.143 32.468 120.735 31.108 120.735 29.316V22.596H123.807V29.028C123.807 30.052 124.015 30.836 124.431 31.38C124.847 31.924 125.495 32.196 126.375 32.196C127.239 32.196 127.943 31.892 128.487 31.284C129.047 30.676 129.327 29.828 129.327 28.74V22.596H132.399ZM135.529 34.5V22.596H138.241L138.481 24.612C138.849 23.908 139.377 23.348 140.065 22.932C140.769 22.516 141.593 22.308 142.537 22.308C144.009 22.308 145.153 22.772 145.969 23.7C146.785 24.628 147.193 25.988 147.193 27.78V34.5H144.121V28.068C144.121 27.044 143.913 26.26 143.497 25.716C143.081 25.172 142.433 24.9 141.553 24.9C140.689 24.9 139.977 25.204 139.417 25.812C138.873 26.42 138.601 27.268 138.601 28.356V34.5H135.529Z" fill="white"/>
</svg>
